<?xml version="1.0" encoding="UTF-8"?>
<svg width="1200pt" height="1200pt" version="1.1" viewBox="0 0 1200 1200" xmlns="http://www.w3.org/2000/svg">
 <path d="m720.56 607.78c11.016-16.969 25.078-35.578 39.938-55.312 43.688-57.844 88.828-117.7 70.688-152.68-2.1094-3.7969-8.1562-11.203-17.953-22.078-3.1875-54.984-3.1406-111.19 0.1875-162.61 0.375-9.3281 1.2656-18.469 2.1094-27.281 3-30.562 5.5781-57-14.719-75.938-19.875-18.094-43.031-37.125-62.109-35.484-16.688 2.5781-39.281 14.859-49.547 35.344-1.2188-21.516-3.9844-42.328-17.859-54.281-9-7.7812-21.422-10.734-37.922-9.1406-23.156 1.4531-43.125 16.359-50.062 35.016-5.0625-15.141-11.812-25.969-21-29.812-12.516-5.4375-24.891-5.5781-36.797-0.375-21 9.1406-35.859 32.719-43.031 52.219-6.8438-3.1875-13.734-4.4531-20.578-3.7031-21.656 2.2031-37.828 23.25-45.516 35.578-12.562 19.359-11.578 33.516-10.453 49.875 0.5625 8.3438 1.125 17.016 0.046875 27.469-4.7812 47.812-11.766 72-19.078 97.594-5.25 18.234-10.688 37.125-15.516 65.484-11.438 66.891-6.8438 156.79 3.3281 207.47 5.3906 25.406 12.281 47.156 18.938 68.156 13.969 44.203 27.188 85.922 27.188 158.86 0 53.953-2.9062 109.45-5.7188 163.18-2.8594 54.984-5.8594 111.84-5.8594 168.42 0 1.8281 1.5 3.2812 3.2812 3.2812 1.8281 0 3.2812-1.4531 3.2812-3.2812 0-56.438 2.9531-113.2 5.8125-168.1 2.8125-53.766 5.7188-109.36 5.7188-163.5 0-73.922-13.359-116.16-27.516-160.82-6.6094-20.859-13.406-42.422-18.75-67.5-10.031-50.062-14.578-138.94-3.2812-205.03 4.7812-27.984 10.172-46.734 15.375-64.781 7.4531-25.875 14.484-50.344 19.312-98.719 1.1719-11.016 0.51562-20.344-0.046875-28.594-1.0781-15.844-1.9219-28.312 9.4688-45.891 7.0781-11.344 21.75-30.609 40.641-32.531 11.578-1.3125 23.391 4.4062 35.062 16.641 13.594 13.594 29.156 96.562 19.875 144.66-3.4219 17.812-9.9375 29.25-18.516 32.953-16.922 5.0625-25.641 1.9219-32.391-11.531-13.125-26.203-22.828-77.578-24.422-97.781-0.09375-1.2656-0.9375-2.3906-2.1094-2.8125l-13.219-4.9688c-1.6406-0.60938-3.6094 0.23437-4.2656 1.9219s0.23438 3.6094 1.9219 4.2188l11.25 4.2188c2.0625 22.359 11.672 71.625 24.891 98.109 9.2812 18.516 22.969 19.172 36.094 15.938-0.046875 0.09375-0.09375 0.14062-0.14062 0.23437-2.2031 5.1094-0.84375 10.969 3.9844 17.391 23.484 30.141 58.734 47.438 96.656 47.438 14.578 0 26.297-3.8438 36.141-10.078 18.562-1.125 32.109 15.141 43.734 33.656-39.891 3-78.047 26.531-102.75 63.844-19.828 29.906-26.766 62.625-18.141 85.312 0.51562 1.3125 1.7344 2.1562 3.0938 2.1562 0.375 0 0.79688-0.09375 1.1719-0.23437 1.6875-0.65625 2.5781-2.5312 1.9219-4.2656-7.875-20.766-1.1719-51.188 17.484-79.359 24.281-36.703 62.062-59.578 101.11-61.312 1.7812 2.9531 3.4688 5.9062 5.2031 8.8125 9.9375 17.016 18.516 31.688 29.203 33.984 0.23438 0.046876 0.46875 0.09375 0.70312 0.09375 1.5469 0 2.9062-1.0781 3.2344-2.625 0.375-1.7812-0.75-3.5156-2.5312-3.8906-7.875-1.6875-16.125-15.844-24.891-30.844-12.516-21.469-27.891-47.297-50.672-51.234 12.469-10.641 21.609-25.219 29.906-40.125 0.84375-1.5938 0.32812-3.6094-1.2656-4.5-1.6406-0.89062-3.6094-0.28125-4.5 1.2656-14.812 26.672-32.297 52.734-68.062 52.734-35.906 0-69.234-16.359-91.406-44.859-3.2812-4.3594-4.3125-8.0156-3.1406-10.828 2.5781-6.1406 15.703-10.734 39.047-13.641 18.375-3.4688 110.53-21.094 123.32-30.188 14.344-9.6094 35.625 0.98437 65.531 33 71.719 71.766 91.078 94.594 94.688 101.06 16.172 31.172-29.672 91.969-70.125 145.55-14.953 19.828-29.062 38.531-40.266 55.734-5.1562 8.1562-9.9844 15.422-14.484 22.172-20.391 30.516-33.891 50.672-33.891 93.422 0 93.562 15.328 182.34 28.828 260.68 11.109 64.406 20.719 120.05 20.719 168.28 0 1.8281 1.5 3.2812 3.2812 3.2812 1.8281 0 3.2812-1.4531 3.2812-3.2812 0-48.797-9.6562-104.72-20.812-169.4-13.453-78.094-28.688-166.55-28.688-259.55 0-40.734 13.031-60.234 32.766-89.766 4.5469-6.7969 9.4219-14.109 14.578-22.266zm-86.578-552.84c14.719-1.5 25.5 1.0312 33.047 7.5469 13.922 12 15.047 36.375 16.125 60.375 3.1406 37.781 0.1875 84.234-3.2344 99.703-7.0781 34.453-41.109 51.797-61.828 48.891-8.3438-1.125-22.125-6.2344-20.766-28.219 0.046875-0.42188-0.28125-0.75-0.375-1.1719 0.14062-2.3906 0.42188-4.6875 0.42188-7.3125 0-48.141-1.5469-101.3-10.125-137.86 0.1875-20.859 21.891-40.453 46.781-42zm-40.266 205.36c3.6562 8.8594 10.781 14.859 21.047 16.969-12.422 2.8594-26.297 5.8594-40.781 8.8125 7.7344-4.2656 15.422-12.094 19.781-25.781zm-91.312-139.97c-4.6406-4.875-9.375-8.4844-14.156-11.438v-0.046875c6.1875-17.578 20.391-41.109 39.891-49.594 10.172-4.4062 20.766-4.3125 31.594 0.375 30.984 13.031 30.984 135.05 30.984 175.13 0 25.172-8.4844 41.672-24.516 47.672-16.641 6.1875-36.469-0.51562-43.125-7.875 0.28125-1.3125 0.70312-2.3438 0.98438-3.7031 9.4688-49.031-5.2969-134.16-21.656-150.52zm38.438 172.22c-11.578 1.4531-20.531 3.3281-27.469 5.625 3.1406-4.4062 5.8125-9.9375 7.875-16.688 6.0938 4.875 16.125 8.8125 27.234 9.5625-2.5312 0.46875-5.1094 0.98438-7.6406 1.4531zm121.22-29.344c7.9688-6.5156 14.719-15 19.312-24.891 0.60938 8.2031 1.8281 16.172 3.7031 21.938-7.9688-2.0156-15.75-1.6406-23.016 2.9062zm57.141 17.953c33.469-0.375 40.969-37.312 48.234-73.172 4.6406-22.922 9.4219-46.641 20.625-61.969 1.0781-1.4531 0.75-3.5625-0.70312-4.5938-1.4531-1.0781-3.5625-0.75-4.5938 0.70312-12.094 16.5-17.016 40.922-21.75 64.547-7.9688 39.375-14.953 73.312-50.531 67.125-5.4844-4.2656-11.109-7.8281-16.781-10.453-0.046875-0.046875-0.046875-0.09375-0.09375-0.14062-3.4688-2.8594-7.5-27.234-5.7188-48.094v-0.046875c2.5781-18.844 4.2656-52.734 2.4375-84v-0.046875c2.25-28.219 30.234-45.047 49.219-48 0.60938-0.046875 1.2188-0.09375 1.8281-0.09375 17.766 0 41.859 21.938 55.031 33.844 17.906 16.688 15.469 41.625 12.656 70.453-0.89062 8.9062-1.7812 18.094-2.1562 27.562-3.1875 49.172-3.2812 102.7-0.51562 155.44-16.219-17.531-39.844-41.812-71.297-73.359-4.8281-5.1562-10.172-10.594-15.844-15.703z" fill="#fff"/>
</svg>
