<?xml version="1.0" encoding="UTF-8"?>
<svg width="1200pt" height="1200pt" version="1.1" viewBox="0 0 1200 1200" xmlns="http://www.w3.org/2000/svg">
 <path d="m825.52 238.74c-10.359-7.4531-29.906 0.46875-40.594 5.9062-29.531 14.953-68.062 37.031-92.672 51.797-2.0156-13.688-9.8906-30.422-19.312-33.891 3.375-39.609 9.5625-103.92 12.562-115.78 1.5938-6.1875 14.906-61.359-3.5156-86.672-5.3906-7.4062-12.938-11.484-22.453-12.047-19.5-1.1719-25.688 21.891-30.656 40.406l-1.2656 4.6875c-7.6406 28.125-15.75 56.625-24.375 86.766-18.562 65.109-37.781 132.47-51.609 194.63-0.046875 0.28125 0.14062 0.51563 0.14062 0.79688-3.4219 1.8281-6.8438 3.6562-10.266 5.4844-48.562 25.922-94.406 50.391-117.61 65.578-12.188 7.9219-17.766 15.188-25.078 32.203l-0.32812 0.75c-4.0312 9.4219-8.5781 20.062-15.281 29.156-18.422 24.938-15.844 49.031-12.844 76.969l0.70312 6.5156c5.5312 53.344 20.625 113.39 25.547 126.14 24.469 63.047 13.547 212.58 5.5781 321.71-2.4844 33.938-4.5938 63.188-5.4844 86.203-0.046875 1.7344 1.2656 3.1875 3 3.2344h0.14062c1.6875 0 3.0469-1.3125 3.1406-3 0.89062-22.875 3-52.125 5.4844-86.016 8.0156-109.73 18.984-260.06-6-324.42-4.875-12.516-19.688-71.719-25.172-124.55l-0.70312-6.5156c-2.9531-27.703-5.2969-49.594 11.672-72.562 7.1719-9.7031 11.859-20.672 15.984-30.422l0.32812-0.75c6.75-15.891 11.672-22.172 22.734-29.438 22.969-15 68.719-39.422 117.14-65.297 50.812-27.141 103.36-55.172 138.14-76.781 21.609-13.406 69.984-41.531 105.14-59.344 12.234-6.1875 27.562-11.109 34.125-6.375 3.1875 2.2969 4.2656 7.2188 3.1875 14.531-6.1406 41.438-43.594 64.172-76.641 84.234-8.0156 4.875-15.609 9.4688-22.688 14.297-10.078 6.7969-18.703 13.406-26.531 19.688l-0.046875 0.046875c-6.3281 5.1094-12.141 10.031-17.531 14.625-15.938 13.594-29.766 25.312-48.844 34.078-6.0938-3.0469-14.062-5.2969-24.938-6.6562-29.438-3.6094-63.422-2.2031-76.594 0.1875-1.6875 0.28125-2.8125 1.9219-2.5312 3.6094 0.32812 1.6875 1.9219 2.8125 3.6094 2.5312 12.469-2.25 46.219-3.6094 74.719-0.14062 35.906 4.4062 37.078 16.406 39.891 45.422 0.42188 4.5 0.89062 9.3281 1.5469 14.531 1.4531 11.719 3.2344 24.75 5.0625 38.344 1.3125 9.6562 2.6719 19.547 3.9844 29.531 4.2188 32.109 8.5781 68.297 8.9531 93.75 0.1875 13.312 0.375 24.844-4.875 29.016-3.1406 2.5312-8.625 2.7656-16.875 0.65625-8.2031-2.0625-21.656-12-32.016-28.969 0.70312-18.328-1.3125-42.516-3.6094-66.656-0.70312-7.5-1.3125-13.547-1.4062-17.109-0.23438-4.9688-0.375-9.8438-0.46875-14.625-0.75-26.578-1.4062-49.547-13.031-68.391-11.062-17.953-45.422-14.016-88.922-9.0938-16.641 1.875-33.891 3.8438-51.141 4.6875-1.7344 0.09375-3.0469 1.5469-2.9531 3.2812 0.09375 1.6875 1.4531 2.9531 3.1406 2.9531h0.14062c17.438-0.84375 34.781-2.8125 51.516-4.7344 39.656-4.5 73.875-8.3906 82.875 6.1875 10.734 17.438 11.391 39.609 12.094 65.297 0.14062 4.7812 0.28125 9.7031 0.46875 14.719 0.14062 3.6094 0.75 9.75 1.4531 17.438 1.5938 16.828 4.3125 45.469 3.5156 66.422-0.046875 0.1875-0.046875 0.42188 0 0.60938-0.46875 11.062-1.9219 19.922-5.1562 23.531-4.2656 4.8281-11.672 3.2344-21.984-4.7812-32.203-24.938-36.656-112.97-37.031-122.95-0.046875-1.5-1.2188-3.1875-2.7188-3.375l-0.42188 3.0938-3.0938 0.51562c0.28125 6.75 1.2656 24.516 4.5469 45.094-14.906-13.266-44.672-31.547-51.234-34.734-1.5938-0.79688-3.4219-0.14062-4.1719 1.4531-0.75 1.5469-0.14062 3.4219 1.4531 4.1719 8.5312 4.1719 49.312 30 55.922 40.219 0.09375 0.5625 0.23438 1.125 0.375 1.6406-26.016-4.2656-52.5-0.70312-76.781 10.5-1.5469 0.75-2.25 2.5781-1.5 4.1719 0.51562 1.125 1.6406 1.8281 2.8125 1.8281 0.42188 0 0.89062-0.09375 1.3125-0.28125 23.859-11.062 49.969-14.438 75.516-9.7969 5.6719 25.312 15.188 51 31.219 63.422 16.688 12.938 25.781 9.375 30.516 3.9844 3.1406-3.5625 5.0156-9.9844 6-18.375 9.6562 12.328 20.766 35.625 20.766 47.672 0 1.7344 1.4062 3.1406 3.1406 3.1406s3.1406-1.4062 3.1406-3.1406c0-7.5938-3.75-18.844-8.9062-29.625 4.5 3.2344 9 5.7188 13.125 6.7969 4.2188 1.0312 7.875 1.5938 11.062 1.5938 4.6875 0 8.3438-1.125 11.203-3.4219 7.6406-6.0469 7.4531-18.375 7.2188-34.547-0.375-25.172-4.7812-61.594-9.0469-93.891-1.3125-9.9375-2.625-19.875-3.9375-29.531-1.875-13.594-3.6094-26.578-5.0625-38.25-0.65625-5.1562-1.125-9.9375-1.5469-14.344-1.7344-18.188-3.1406-31.734-14.25-40.547 17.953-8.8594 31.5-20.109 46.688-33.141 3.9844-3.4219 8.2969-7.0312 12.75-10.734 0.14062 37.734 6.5625 75 13.594 114.28 6.2812 35.25 12.797 71.672 14.766 110.3 2.9531 57.047-12.469 117.23-43.312 169.5-52.172 88.359-48.562 192.19-45.047 292.55 0.89062 25.359 1.7812 51.562 1.7812 77.109 0 1.7344 1.4062 3.1406 3.1406 3.1406s3.1406-1.4062 3.1406-3.1406c0-25.641-0.9375-51.891-1.7812-77.297-3.4688-99.469-7.0781-202.36 44.203-289.18 31.453-53.297 47.109-114.7 44.156-172.97-2.0156-39-8.5312-75.656-14.859-111.09-7.2656-40.734-14.062-79.266-13.641-118.17 7.3125-5.8594 15.375-11.953 24.656-18.188 7.0312-4.7344 14.531-9.2812 22.453-14.109 34.219-20.766 72.984-44.297 79.594-88.641 1.4531-9.8438-0.46875-16.734-5.7188-20.531zm-216.24-57.141c8.5781-30.188 16.734-58.688 24.375-86.859l1.2656-4.7344c4.4531-16.828 9.5156-35.812 23.25-35.812 0.32812 0 0.65625 0 0.98438 0.046875 7.6875 0.46875 13.5 3.6094 17.812 9.5156 13.594 18.703 8.0156 60 2.5312 81.469-3.1406 12.328-9.2344 75.703-12.75 116.91-15.75 2.1094-31.922 21.141-40.781 39.141-6.6094 13.312-8.7188 24.188-7.3125 37.547 0 0.14062 0.14062 0.23438 0.1875 0.375-19.078 10.5-39.516 21.469-60.047 32.484 13.734-60.797 32.344-126.42 50.484-189.98zm70.031 122.68c-15.234 9.4688-34.078 20.25-54.562 31.594-0.79688-11.109 1.125-20.297 6.7969-31.875 8.625-17.484 24.844-36.047 38.016-36.047h0.09375c6 0.046876 15.562 16.828 16.734 32.016-2.4844 1.5-5.0156 3.0469-7.0312 4.3125zm-98.906 546.52c0.28125 1.6875-0.89062 3.3281-2.5781 3.6094-18.469 3.0469-35.25 5.3906-51.188 5.3906-23.391 0-45.047-5.0625-67.828-20.391-1.4531-0.98438-1.8281-2.9062-0.84375-4.3125 0.98438-1.4531 2.9062-1.7812 4.3125-0.84375 36.422 24.516 70.453 21.281 114.52 14.016 1.875-0.375 3.2812 0.89063 3.6094 2.5781z" fill="#fff"/>
</svg>
