<?xml version="1.0" encoding="UTF-8"?>
<svg width="1200pt" height="1200pt" version="1.1" viewBox="0 0 1200 1200" xmlns="http://www.w3.org/2000/svg">
 <path d="m577.6 438.94c-5.7188 26.438-11.812 123.24 2.1562 142.03 1.0781 1.4531 0.75 3.4688-0.65625 4.5469-0.5625 0.42188-1.2656 0.65625-1.9219 0.65625-0.98438 0-1.9688-0.46875-2.5781-1.3125-16.688-22.406-8.1094-125.11-3.3281-147.28 8.5312-39.609 24.984-73.781 48.844-101.62 1.1719-1.3594 3.2344-1.5 4.5938-0.375 1.3594 1.1719 1.5 3.2344 0.375 4.5938-23.156 27-39.094 60.234-47.438 98.766zm58.688-143.68c-1.2188-1.2656-3.2812-1.3125-4.5938-0.09375-37.875 36.188-122.48 53.203-147.52 57.516-1.7812 0.28125-2.9531 1.9688-2.625 3.75 0.28125 1.5938 1.6406 2.6719 3.1875 2.6719 0.1875 0 0.375 0 0.5625-0.046875 25.453-4.4531 111.66-21.797 150.84-59.25 1.2656-1.2188 1.3594-3.2812 0.09375-4.5938zm128.48 65.953c7.4531-24.375 25.406-42.984 47.344-56.672 16.219-10.828 35.672-11.391 46.125-1.3594 7.5 7.2188 16.312 25.594-9.1406 67.359-11.156 18.609-13.031 31.406-14.812 43.828-2.7656 19.125-5.3438 37.219-42.562 70.406-34.547 31.266-115.36 99.141-154.55 122.02-5.8594 3.5625-11.953 7.0312-18 10.547-1.0781 0.60938-2.1562 1.2656-3.2344 1.875-17.625 199.97-6.0469 292.5 34.172 525.84 0.28125 1.7812-0.89062 3.4219-2.625 3.75-0.1875 0.046874-0.375 0.046874-0.5625 0.046874-1.5469 0-2.9062-1.125-3.1875-2.7188-40.031-232.13-51.703-325.45-34.594-522.98-28.312 16.5-53.203 33.656-57.891 64.031-0.23438 1.5938-1.6406 2.7656-3.1875 2.7656-0.14062 0-0.32812 0-0.51562-0.046874-1.7812-0.28125-3-1.9219-2.7188-3.7031 5.7188-37.031 39-56.062 71.156-74.484 6-3.4219 12.047-6.8906 17.906-10.453 38.859-22.641 119.16-90.141 153.56-121.26 35.484-31.641 37.781-47.812 40.5-66.516 1.7812-12.422 3.7969-26.484 15.656-46.219 16.875-27.703 20.578-49.312 10.172-59.297-8.1562-7.8281-24.516-6.9844-38.016 2.0625-31.125 20.719-46.406 43.875-45.844 69.422 0.14062 5.8594 0.28125 12.516 0.28125 20.297 0 1.7812-1.4531 3.2344-3.2344 3.2344s-3.2344-1.4531-3.2344-3.2344c0-7.7344-0.14062-14.391-0.28125-20.156-0.046875-3.2344 0.28125-6.0469 0.70312-9.1406-4.9688 3.375-14.109 8.9531-25.875 16.031-11.766 7.125-23.953 14.484-27.656 17.438-0.60938 0.46875-1.3125 0.70312-2.0156 0.70312-0.9375 0-1.875-0.42188-2.5312-1.2188-1.125-1.4062-0.89062-3.4219 0.51562-4.5469 2.8594-2.2969 9.75-6.6094 17.953-11.625-6.4219-7.9688-21.984-28.031-31.828-47.672-18.562-34.266-39.047-105.28-22.5-164.11-6.7031 3.0469-13.547 4.4062-20.391 4.4062-11.109 0-22.031-3-31.828-5.7188-4.2188-1.1719-8.3438-2.2969-12.234-3.1406-0.32812-0.046876-0.46875-0.375-0.75-0.51563-16.266 13.359-42.328 18.703-66.234 21-8.0156 11.203-14.906 18.469-21.938 23.438 15.797 28.125 3.1406 61.781-12.047 75.328-0.60938 0.5625-1.3594 0.79687-2.1562 0.79687-0.89062 0-1.7812-0.375-2.4375-1.0781-1.1719-1.3594-1.0781-3.375 0.28125-4.5938 13.172-11.672 24.469-42.188 10.828-66.938-9.0938 4.9219-19.031 6.9375-32.438 9.3281-0.1875 0.046876-0.375 0.046876-0.5625 0.046876-1.5469 0-2.9062-1.125-3.1875-2.6719-0.28125-1.7812 0.89062-3.4688 2.625-3.75 25.219-4.4531 36.047-7.5938 52.406-29.203-9.6562 0.65625-18.609 0.9375-26.016 1.1719-4.1719 0.14063-7.9219 0.23438-11.062 0.375-1.9219 0.09375-3.3281-1.2656-3.375-3.0938-0.09375-1.7812 1.2656-3.3281 3.0938-3.375 3.1875-0.14062 6.9844-0.28125 11.203-0.375 38.672-1.125 110.58-3.2812 110.58-49.875 0-2.2969-0.70312-3.9844-2.2031-5.3906-6.7969-6.2812-27.609-4.6875-44.344-3.375-2.8594 0.23437-5.6719 0.42187-8.3438 0.60937-12.141 0.89063-21.094 1.4062-27.984 1.8281-14.203 0.79687-25.641 3.75-34.359 8.9062-4.7344 2.7656-11.156 6.5156-20.672 11.625-17.906 9.75-28.594 17.484-34.688 25.078-37.219 42.703-57.656 181.31-57.656 390.37 0 19.078-17.906 492-43.922 582.98-0.42188 1.4062-1.6875 2.3438-3.0938 2.3438-0.28125 0-0.60938-0.046875-0.89062-0.14062-1.7344-0.46875-2.7188-2.2969-2.2031-3.9844 25.219-88.172 43.688-562.69 43.688-581.21 0-149.02 10.266-338.44 59.156-394.55 3.5625-4.4531 8.6719-8.9531 15.422-13.734-0.70312-49.875 23.906-78.234 69.609-79.828l7.9219-0.28125c0.89062-0.046875 1.7344-0.046875 2.625-0.09375l1.8281-1.7344c33.094-31.688 35.062-33.609 77.766-22.078 30.141 7.5469 45.469 11.906 53.672 14.625 32.25-3.0938 50.953-3.6562 63.516 1.7344 13.031 4.9219 26.672 20.953 41.812 39.891 2.2031 2.7656 4.8281 5.5781 7.5 8.4844 9.0469 9.7969 18.375 19.875 16.219 30.422-1.3125 6.5156-6.8438 11.859-16.828 16.359-4.2656 1.4531-8.9531 2.7188-14.484 3.1875 1.5938 4.875 2.2969 9.4219 1.8281 13.641-0.84375 7.7344-5.3438 14.203-13.031 18.703-5.3906 2.7188-11.672 3.9375-18.328 3.9375-20.812 0-45.188-11.859-57.984-26.812-13.5 50.672 0.79688 118.17 22.359 158.02 9.9375 19.828 25.781 40.078 31.641 47.25 1.5938-0.98438 3.1875-1.9219 4.8281-2.9062m-57.281-306.42c13.594 7.3125 24.938 19.922 35.859 32.391 4.875 5.5781 9.8906 11.297 15.094 16.5 15.984 14.719 26.766 27.938 32.344 39.516 5.6719-0.09375 10.031-1.5 14.578-3 7.5469-3.4219 11.953-7.3594 12.844-11.625 1.5-7.2656-7.0781-16.547-14.625-24.703-2.7656-3-5.5312-5.9531-7.8281-8.8125-11.203-14.016-26.578-33.188-39.141-37.922-9.0938-3.8906-21.703-4.5469-49.172-2.2969zm-135.42 3.4219c36.234-1.125 66.797 0.375 103.27 25.594 2.4375 1.6875 5.5312 3.6562 8.9531 5.8125 15.469 9.6562 36.609 22.922 38.109 38.438 0.60938 6.2344-2.0156 12.141-7.7812 17.578-2.1094 2.1094-4.3125 3.75-6.5156 5.3438 13.125 19.359 50.297 35.438 70.969 25.031 5.7188-3.3281 9.0469-7.9688 9.6562-13.688 0.98438-9.1406-4.2188-25.969-34.734-54-5.4375-5.4375-10.547-11.25-15.469-16.875-11.812-13.5-22.969-26.25-37.219-32.812-2.4375-1.5938-12.984-5.625-61.031-17.625-37.641-10.125-39.422-10.266-68.203 17.203zm138.05 82.734c4.3594-4.0781 6.2344-8.0625 5.8594-12.281-1.1719-12.328-21.609-25.125-35.109-33.562-3.5625-2.2031-6.75-4.2188-9.2344-5.9531-38.766-26.859-71.016-25.641-111.7-24.047l-7.9688 0.28125c-50.859 1.7344-62.766 37.219-63.281 69 4.3125-2.7188 9.0469-5.5781 14.578-8.5781 9.4219-5.0625 15.75-8.7656 20.438-11.531 14.391-8.4375 14.859-8.4844 37.266-9.75 6.8438-0.375 15.75-0.89062 27.891-1.8281 2.7188-0.1875 5.4844-0.375 8.2969-0.60938 19.828-1.5469 40.406-3.1875 49.266 5.0625 2.8594 2.625 4.2656 6.0469 4.2656 10.125 0 11.859-4.125 21.094-10.734 28.453 3.0938 0.75 6.1875 1.5 9.4219 2.3906 19.641 5.4375 41.906 11.578 60.656-7.2188z" fill="#fff"/>
</svg>
