<?xml version="1.0" encoding="UTF-8"?>
<svg width="1200pt" height="1200pt" version="1.1" viewBox="0 0 1200 1200" xmlns="http://www.w3.org/2000/svg">
 <path d="m761.16 794.39c16.312-31.172 20.156-68.766 16.828-90.328-2.25-21.562-7.1719-43.359-11.859-64.5-0.046875-0.23438-0.09375-0.42188-0.14062-0.65625 0-51.188-3.1406-108.66-9.0469-166.22-5.9062-48.891-12-96.188-21.047-136.87-3.0469-16.875-12.422-95.344-17.953-143.86-0.1875-2.6719-0.32812-5.5312-0.51562-8.5312-1.2656-23.016-2.8594-51.656-16.734-68.297-10.781-12.75-26.438-14.672-37.078-11.016-4.5469 1.5938-8.1562 4.125-10.828 7.2656-1.7344-16.922-3.2812-29.578-4.0781-34.219-7.2656-25.406-24.656-29.203-34.641-29.203h-0.046875c-8.2969 0.65625-14.859 3.7969-19.547 9.375-11.438 13.594-9.8438 38.812-7.6875 62.109-8.7656-11.344-21.047-11.391-26.578-11.391-28.078 0-36.188 55.219-39.984 117.42-1.875-2.7188-4.0312-5.2031-6.8438-6.9375-7.5469-4.6406-17.906-5.4375-27.891-2.1094-16.641 6.6562-22.969 23.719-27.328 41.109-5.2969 21.281-8.625 51.75-11.531 78.656-2.1094 19.406-4.0781 37.688-6.5156 50.578-5.9531 25.266-10.5 55.219-13.594 88.969-6.2344 53.016-7.3594 107.16-3 144.89 4.0781 36.609 11.016 79.359 19.594 120.52 5.1094 21.844 13.172 40.875 20.953 59.203 8.1094 19.078 15.75 37.078 18.094 54.984 11.766 47.016 11.625 238.22 8.9062 286.03-0.09375 1.6406 1.1719 3.0938 2.8125 3.1875h0.1875c1.5938 0 2.9062-1.2188 3-2.8125 2.7188-48 2.8125-240.28-9.0469-287.48-2.3906-18.375-10.219-36.75-18.469-56.203-7.6875-18.141-15.656-36.891-20.625-58.172-8.5312-40.922-15.469-83.484-19.5-119.91-4.3125-37.312-3.1875-90.938 3-143.58 3.0469-33.562 7.5938-63.234 13.5-88.359 2.5312-13.219 4.5-31.641 6.6094-51.188 2.9062-26.719 6.1406-57 11.391-77.859 4.5938-18.328 10.359-31.641 23.578-36.938 6.3281-2.1094 15.562-2.8125 22.688 1.5938 5.0625 3.0938 8.1094 8.2969 9.1875 15.375-1.6875 23.016-3 48.469-4.2656 73.219-1.9219 38.016-3.9375 77.344-7.4531 109.31-7.9688 20.438-0.51562 58.312 53.203 128.48 11.766 15.047 16.922 25.547 21.516 34.828 4.125 8.3906 7.9688 16.078 15.469 25.266-11.672 13.219-14.391 89.062-10.5 108.33 7.3594 38.203 34.078 98.484 52.406 110.16 0.51562 0.32812 1.0312 0.46875 1.5938 0.46875 0.98438 0 1.9688-0.51562 2.5312-1.4062 0.89062-1.4062 0.46875-3.2344-0.9375-4.125-15.281-9.7031-42.234-67.312-49.734-106.22-4.4531-22.312 0.42188-92.578 8.5312-102.61 2.625 2.9062 5.4844 5.9531 9 9.2812 1.2188 1.125 3.0938 1.0781 4.2656-0.09375 1.125-1.2188 1.0781-3.0938-0.09375-4.2656-16.359-15.562-21.375-25.688-27.094-37.406-4.6875-9.5625-10.031-20.391-22.125-35.859-52.547-68.719-67.781-115.08-44.109-134.02 2.4375-1.875 5.1094-2.625 8.1562-2.0625 16.594 2.5781 40.359 37.266 59.484 65.156 11.438 16.734 22.266 32.531 30.656 40.406 19.266 18.047 42.562 28.781 65.062 39.188 34.219 15.797 63.75 29.391 70.734 64.406 1.5 7.1719 3.1406 14.344 4.7344 21.516 4.6875 20.953 9.5156 42.562 11.766 63.938 2.6719 17.344 0.5625 54.75-16.219 86.719-5.5312 10.312-9.7031 17.062-12.797 21.984-9.75 15.656-9.75 16.359-8.6719 52.875l0.09375 3.3281c0.75 18.422 1.3594 42.516 1.9688 68.016 1.8281 75.844 4.125 170.29 13.125 211.92 0.28125 1.4062 1.5469 2.3906 2.9531 2.3906 0.1875 0 0.42188-0.046875 0.65625-0.09375 1.5938-0.32812 2.6719-1.9219 2.2969-3.5625-8.8594-41.062-11.156-135.19-12.984-210.79-0.60938-25.5-1.2188-49.641-1.9688-68.062l-0.09375-3.2812c-0.65625-23.625 1.9219-40.125 7.7812-49.547 3.0938-5.0156 7.3594-11.859 12.984-22.312zm-73.828-244.82c-22.078-10.172-44.953-20.719-63.469-38.109-7.9219-7.4531-18.562-22.969-29.812-39.422-20.766-30.328-44.344-64.734-63.469-67.688-4.7344-0.70312-9 0.375-12.797 3.3281-1.0312 0.84375-2.0625 1.7812-3 2.7656 2.8594-29.766 4.6875-64.172 6.375-97.828 1.3125-25.969 2.6719-52.781 4.5-76.688 1.9688-36.469 6.6094-121.82 34.547-121.82 11.062 0 22.969 2.7188 28.078 22.781 0.28125 3.6562 0.46875 7.125 0.46875 10.172-0.5625 21.328-2.2969 42.562-3.9375 63.141-2.6719 32.953-5.3906 67.078-3.5156 102.56 3 25.359 3 55.125 0 91.031-0.14062 1.6406 1.0781 3.0938 2.7188 3.2344h0.23438c1.5469 0 2.8594-1.1719 3-2.7656 3.0469-36.281 3.0469-66.469 0-92.062-1.8281-34.922 0.89062-68.766 3.5625-101.58 1.6406-20.625 3.375-41.953 3.9844-63.516 0-6.9375-0.75-15.188-1.5938-23.906-2.1562-23.203-4.6406-49.5 5.9062-61.969 3.7031-4.3594 8.7188-6.75 15.234-7.2656 9.8438 0 22.781 4.3125 28.594 24.562 1.4531 8.7188 5.9531 48.844 9 91.312 2.9531 44.438 2.0156 82.172 1.0312 122.11-0.51562 20.391-1.0312 41.438-1.0312 63.984v42.047c0 1.6406 1.3594 3 3 3s3-1.3594 3-3v-42.047c0-22.453 0.51562-43.5 1.0312-63.844 0.98438-40.078 1.9219-77.906-1.0312-122.68-1.1719-16.031-2.5312-31.781-3.8438-45.656 0.28125-6.3281 4.5938-11.531 11.578-13.969 8.7188-3 21.609-1.4062 30.516 9.1875 12.562 15.094 14.156 43.828 15.328 64.781 0.1875 3 0.32812 5.9062 0.51562 8.7188 6.6562 58.406 15.141 128.48 18.047 144.52 9 40.547 15.094 87.656 21 136.36 4.875 47.531 7.7344 94.781 8.625 138.71-9.7969-33.328-40.031-47.672-72.281-62.531z" fill="#fff"/>
</svg>
